<svg xmlns="http://www.w3.org/2000/svg" version="1.1" xmlns:xlink="http://www.w3.org/1999/xlink" xmlns:svgjs="http://svgjs.dev/svgjs" width="1500" height="257" viewBox="0 0 1500 257"><g transform="matrix(1,0,0,1,-0.9090909090909918,-0.9177722542494848)"><svg viewBox="0 0 396 68" data-background-color="#ffffff" preserveAspectRatio="xMidYMid meet" height="257" width="1500" xmlns="http://www.w3.org/2000/svg" xmlns:xlink="http://www.w3.org/1999/xlink"><g id="tight-bounds" transform="matrix(1,0,0,1,0.2400000000000091,0.24283468205823056)"><svg viewBox="0 0 395.52 67.51433063588352" height="67.51433063588352" width="395.52"><g><svg viewBox="0 0 539.4752463728657 92.08715148031044" height="67.51433063588352" width="395.52"><g><svg viewBox="0 0 395.52 92.08715148031044" height="92.08715148031044" width="395.52"><g id="textblocktransform"><svg viewBox="0 0 395.52 92.08715148031044" height="92.08715148031044" width="395.52" id="textblock"><g><svg viewBox="0 0 395.52 92.08715148031044" height="92.08715148031044" width="395.52"><g transform="matrix(1,0,0,1,0,0)"><svg width="395.52" viewBox="1 -39 173.94 40.5" height="92.08715148031044" data-palette-color="#000000"><path d="M21.75 0L1 0Q1-3.6 1-7.2 1-10.8 1-14.4 1-18 1-21.6 1-25.2 1-28.8L1-28.8Q1-31 1-33.18 1-35.35 1-37.5L1-37.5 21.75-37.5Q21.75-32.65 21.75-27.83 21.75-23 21.75-18.15L21.75-18.15Q21.75-15.15 21.75-12.13 21.75-9.1 21.75-6.08 21.75-3.05 21.75 0L21.75 0ZM52.55-37.5L74.15-37.5Q73.05-33.75 71.92-30 70.8-26.25 69.67-22.5 68.55-18.75 67.42-15 66.3-11.25 65.17-7.5 64.05-3.75 62.9 0L62.9 0 33.95 0Q32.1-6.25 30.22-12.5 28.35-18.75 26.5-25 24.65-31.25 22.75-37.5L22.75-37.5 45.05-37.5Q45.35-35.55 45.67-33.63 46-31.7 46.3-29.75 46.6-27.8 46.9-25.85 47.2-23.9 47.5-21.95 47.8-20 48.12-18.07 48.45-16.15 48.75-14.2L48.75-14.2Q48.8-14.2 48.8-14.2 48.8-14.2 48.82-14.2 48.85-14.2 48.85-14.2L48.85-14.2Q49.1-15.85 49.37-17.53 49.65-19.2 49.9-20.85 50.15-22.5 50.42-24.18 50.7-25.85 50.97-27.53 51.25-29.2 51.5-30.85 51.75-32.5 52.02-34.18 52.3-35.85 52.55-37.5L52.55-37.5ZM99.65-39L99.65-39Q95.05-39 91.22-38.33 87.4-37.65 84.35-36.38 81.3-35.1 79.02-33.33 76.75-31.55 75.22-29.3 73.7-27.05 72.92-24.4 72.15-21.75 72.15-18.8L72.15-18.8Q72.15-16.55 72.62-14.35 73.1-12.15 74.12-10.15 75.15-8.15 76.72-6.38 78.3-4.6 80.47-3.15 82.65-1.7 85.5-0.68 88.35 0.35 91.87 0.93 95.4 1.5 99.65 1.5L99.65 1.5Q105.6 1.5 110.12 0.43 114.65-0.65 117.9-2.58 121.15-4.5 123.2-7.08 125.25-9.65 126.2-12.63 127.15-15.6 127.15-18.8L127.15-18.8Q127.15-24.7 124.1-29.25 121.05-33.8 114.95-36.4 108.85-39 99.65-39ZM99.7-23.1L99.7-23.1Q101.45-23.1 102.65-22.7 103.85-22.3 104.55-21.68 105.25-21.05 105.57-20.3 105.9-19.55 105.9-18.8L105.9-18.8Q105.9-18.15 105.7-17.53 105.5-16.9 105.02-16.32 104.55-15.75 103.82-15.33 103.1-14.9 102.07-14.65 101.05-14.4 99.7-14.4L99.7-14.4Q97.4-14.4 96-15.05 94.6-15.7 94-16.7 93.4-17.7 93.4-18.75L93.4-18.75Q93.4-19.55 93.72-20.33 94.05-21.1 94.77-21.73 95.5-22.35 96.72-22.73 97.95-23.1 99.7-23.1ZM150.34-18.75L150.34-18.75Q150.34-18.75 150.34-18.7 150.34-18.65 150.32-18.63 150.29-18.6 150.29-18.55L150.29-18.55 146.09 0 124.34 0Q125.64-3.2 126.82-6.38 127.99-9.55 129.17-12.75 130.34-15.95 131.64-19.1L131.64-19.1Q131.64-19.1 131.64-19.13 131.64-19.15 131.64-19.15 131.64-19.15 131.64-19.18 131.64-19.2 131.64-19.2L131.64-19.2Q129.69-23.8 127.99-28.38 126.29-32.95 124.34-37.5L124.34-37.5 146.84-37.5 150.29-19Q150.29-18.95 150.32-18.9 150.34-18.85 150.34-18.75ZM148.74-16.1L148.74-16.1Q148.74-16.15 148.77-16.18 148.79-16.2 148.79-16.25 148.79-16.3 148.79-16.3L148.79-16.3Q149.54-19.85 150.24-23.38 150.94-26.9 151.67-30.45 152.39-34 153.09-37.5L153.09-37.5 174.79-37.5Q172.94-32.75 171.29-27.95 169.64-23.15 167.74-18.4L167.74-18.4Q167.74-18.4 167.74-18.38 167.74-18.35 167.74-18.35 167.74-18.35 167.74-18.3L167.74-18.3Q168.49-16.45 169.22-14.63 169.94-12.8 170.64-10.98 171.34-9.15 172.04-7.33 172.74-5.5 173.47-3.68 174.19-1.85 174.94 0L174.94 0 152.34 0 148.79-15.9Q148.79-15.95 148.79-15.98 148.79-16 148.77-16.05 148.74-16.1 148.74-16.1Z" opacity="1" transform="matrix(1,0,0,1,0,0)" fill="#000000" class="wordmark-text-0" data-fill-palette-color="primary" id="text-0"></path></svg></g></svg></g></svg></g></svg></g><g transform="matrix(1,0,0,1,417.2595663728657,20.01713560575522)"><svg viewBox="0 0 122.21567999999998 52.052880268799996" height="52.052880268799996" width="122.21567999999998"><g><svg xmlns="http://www.w3.org/2000/svg" xmlns:xlink="http://www.w3.org/1999/xlink" version="1.1" x="0" y="0" viewBox="0 0 100 42.591" enable-background="new 0 0 100 42.591" xml:space="preserve" width="122.21567999999998" height="52.052880268799996" class="icon-icon-0" data-fill-palette-color="accent" id="icon-0"><path d="M19.525 24.44c-5 0-9.069 4.075-9.069 9.089 0 4.986 4.069 9.062 9.069 9.062 5.013 0 9.088-4.076 9.088-9.062C28.613 28.515 24.538 24.44 19.525 24.44zM19.525 38.412c-2.676 0-4.876-2.201-4.876-4.883 0-2.695 2.201-4.896 4.876-4.896 2.695 0 4.889 2.201 4.889 4.896C24.414 36.21 22.22 38.412 19.525 38.412z" fill="#000000" data-fill-palette-color="accent"></path><path d="M80.632 24.44c-5.007 0-9.076 4.075-9.076 9.089 0 4.986 4.069 9.062 9.076 9.062 5.006 0 9.068-4.076 9.068-9.062C89.7 28.515 85.638 24.44 80.632 24.44zM80.632 38.412c-2.695 0-4.89-2.201-4.89-4.883 0-2.695 2.194-4.896 4.89-4.896s4.889 2.201 4.889 4.896C85.521 36.21 83.327 38.412 80.632 38.412z" fill="#000000" data-fill-palette-color="accent"></path><path d="M98.249 26.732c0-8.815-5.495-9.87-5.495-9.87-8.079-1.133-21.999-1.719-21.999-1.719C69.479 12.93 63.581 0 60.149 0c-1.158 0-25.781 0-30.143 0-4.368 0-11.523 12.604-13.092 15.456 0 0-5.482 0.938-8.066 1.537-1.432 0.325-5.41 0.403-5.41 11.51H0v5.026h8.366c0-6.172 5.007-11.172 11.159-11.172 6.178 0 11.172 5 11.172 11.172H69.46c0-6.172 4.986-11.172 11.172-11.172 6.165 0 11.165 5 11.165 11.172H100v-6.797H98.249zM44.746 14.284H27.344c2.35-7.331 6.712-12.565 8.555-12.565 2.311 0 8.848 0 8.848 0V14.284zM47.988 14.284V1.719c0 0 8.978 0 11.289 0 2.324 0 7.422 10.638 8.854 13.359L47.988 14.284z" fill="#000000" data-fill-palette-color="accent"></path></svg></g></svg></g></svg></g><defs></defs></svg><rect width="395.52" height="67.51433063588352" fill="none" stroke="none" visibility="hidden"></rect></g></svg></g></svg>